<?xml version="1.0" encoding="UTF-8" standalone="no"?>
<!-- Uploaded to: SVG Repo, www.svgrepo.com, Generator: SVG Repo Mixer Tools -->

<svg
   width="800"
   height="800"
   viewBox="0 0 24 24"
   fill="none"
   version="1.1"
   id="svg1"
   sodipodi:docname="discord.svg"
   inkscape:version="1.3.2 (091e20e, 2023-11-25, custom)"
   xmlns:inkscape="http://www.inkscape.org/namespaces/inkscape"
   xmlns:sodipodi="http://sodipodi.sourceforge.net/DTD/sodipodi-0.dtd"
   xmlns="http://www.w3.org/2000/svg"
   xmlns:svg="http://www.w3.org/2000/svg">
  <defs
     id="defs1" />
  <sodipodi:namedview
     id="namedview1"
     pagecolor="#ffffff"
     bordercolor="#000000"
     borderopacity="0.25"
     inkscape:showpageshadow="2"
     inkscape:pageopacity="0.0"
     inkscape:pagecheckerboard="0"
     inkscape:deskcolor="#d1d1d1"
     inkscape:zoom="1.07625"
     inkscape:cx="399.07085"
     inkscape:cy="399.07085"
     inkscape:window-width="1854"
     inkscape:window-height="1057"
     inkscape:window-x="3898"
     inkscape:window-y="-8"
     inkscape:window-maximized="1"
     inkscape:current-layer="svg1" />
  <path
     d="M 20.319875,4.4561989 C 18.760342,3.742939 17.104018,3.2230907 15.375271,2.932945 c -0.21761,0.3747753 -0.459473,0.8825191 -0.628688,1.2814808 -1.838799,-0.265982 -3.664336,-0.265982 -5.4777021,0 C 9.0996214,3.8154641 8.8457326,3.3077203 8.6402051,2.932945 6.8993645,3.2230907 5.2431082,3.742939 3.6944666,4.4561989 0.56331787,9.0743448 -0.28294549,13.583675 0.1401811,18.032539 c 2.0793703,1.511137 4.0862383,2.42997 6.0580168,3.034516 0.4835686,-0.652828 0.9187986,-1.354052 1.293574,-2.091543 -0.7132825,-0.265892 -1.3902855,-0.592306 -2.0431134,-0.979241 0.1692478,-0.120819 0.3385071,-0.253765 0.4956732,-0.386824 3.9411311,1.801397 8.2099463,1.801397 12.1026603,0 0.169214,0.133059 0.326413,0.266005 0.495628,0.386824 -0.652829,0.386935 -1.329798,0.713349 -2.043035,0.979241 0.374697,0.737491 0.810028,1.438715 1.293529,2.091543 1.970611,-0.604546 3.989505,-1.523379 6.058039,-3.034516 0.51977,-5.149975 -0.823288,-9.6230701 -3.531278,-13.5763401 z M 8.0357839,15.288281 c -1.1847808,0 -2.1519295,-1.075919 -2.1519295,-2.393703 0,-1.317669 0.9429737,-2.393691 2.1519295,-2.393691 1.196829,0 2.1760371,1.076022 2.1518501,2.393691 0,1.317784 -0.9550211,2.393703 -2.1518501,2.393703 z m 7.9439191,0 c -1.184724,0 -2.153086,-1.075919 -2.153086,-2.393703 0,-1.317669 0.944108,-2.393691 2.153086,-2.393691 1.196851,0 2.176094,1.076022 2.151952,2.393691 0,1.317784 -0.942973,2.393703 -2.151952,2.393703 z"
     fill="#000000"
     id="path1"
     style="fill:#ffffff;fill-opacity:1;stroke-width:1.13338" />
</svg>
