<?xml version="1.0" encoding="UTF-8" standalone="no"?>
<!-- Uploaded to: SVG Repo, www.svgrepo.com, Generator: SVG Repo Mixer Tools -->

<svg
   width="800"
   height="800"
   viewBox="0 -3 20 20"
   version="1.1"
   id="svg1"
   sodipodi:docname="youtube-168-svgrepo-com.svg"
   xmlns:inkscape="http://www.inkscape.org/namespaces/inkscape"
   xmlns:sodipodi="http://sodipodi.sourceforge.net/DTD/sodipodi-0.dtd"
   xmlns="http://www.w3.org/2000/svg"
   xmlns:svg="http://www.w3.org/2000/svg">
  <sodipodi:namedview
     id="namedview1"
     pagecolor="#ffffff"
     bordercolor="#000000"
     borderopacity="0.25"
     inkscape:showpageshadow="2"
     inkscape:pageopacity="0.0"
     inkscape:pagecheckerboard="0"
     inkscape:deskcolor="#d1d1d1" />
  <title
     id="title1">youtube [#168]</title>
  <desc
     id="desc1">Created with Sketch.</desc>
  <defs
     id="defs1" />
  <g
     id="Page-1"
     stroke="none"
     stroke-width="1"
     fill="none"
     fill-rule="evenodd"
     style="fill:#ffffff;fill-opacity:1">
    <g
       id="Dribbble-Light-Preview"
       transform="translate(-300,-7442)"
       fill="#000000"
       style="fill:#ffffff;fill-opacity:1">
      <g
         id="icons"
         transform="translate(56,160)"
         style="fill:#ffffff;fill-opacity:1">
        <path
           d="m 251.98843,7291.5859 v -5.6117 c 1.99221,0.9375 3.53517,1.843 5.36003,2.8193 -1.50511,0.8347 -3.36782,1.7712 -5.36003,2.7924 m 11.10257,-8.403 c -0.34366,-0.4528 -0.92937,-0.8048 -1.55293,-0.9215 -1.83283,-0.348 -13.2671,-0.349 -15.09893,0 -0.50004,0.094 -0.9453,0.3201 -1.32781,0.6722 -1.61169,1.4959 -1.10667,9.5179 -0.71819,10.8174 0.16336,0.5624 0.37454,0.9683 0.6405,1.2346 0.34266,0.352 0.81182,0.5943 1.35071,0.703 1.5091,0.3122 9.28369,0.4867 15.12185,0.047 0.53789,-0.094 1.01403,-0.344 1.38956,-0.711 1.49017,-1.49 1.38857,-9.9628 0.19524,-11.8416"
           id="youtube-[#168]"
           style="fill:#ffffff;fill-opacity:1" />
      </g>
    </g>
  </g>
</svg>
